<svg width="156" height="61" viewBox="0 0 156 61" fill="none" xmlns="http://www.w3.org/2000/svg">
<path d="M0.2 27.44H13C13 16.64 17.32 12 27 12C34.28 12 36.68 15.6 36.68 19.2C36.68 31.68 6.76 34.8 1 35.6V58H49.48V46.8H12.2L4.2 49.2V46C30.6 41.12 49.48 38.72 49.48 19.76C49.48 7.44 40.2 0.799997 26.84 0.799997C12.04 0.799997 0.2 8.48 0.2 27.44ZM102.543 29.36C102.543 9.84 92.3031 0.799997 76.7831 0.799997C60.7831 0.799997 51.1031 9.6 51.1031 22.16C51.1031 35.04 59.4231 42.8 73.4231 42.8C83.9831 42.8 92.5431 37.2 93.5031 27.76H96.7031L93.5031 34.96C91.1031 45.52 84.8631 48.48 74.6231 47.6L55.6631 46V57.2L74.6231 58.8C94.7831 60.48 102.543 46.96 102.543 29.36ZM89.7431 21.36C89.7431 28 85.8231 31.6 76.4631 31.6C67.8231 31.6 63.9031 28.72 63.9031 22.16C63.9031 14.64 67.9831 12 76.7831 12C85.7431 12 89.7431 16.48 89.7431 21.36ZM155.574 29.36C155.574 9.84 145.334 0.799997 129.814 0.799997C113.814 0.799997 104.134 9.6 104.134 22.16C104.134 35.04 112.454 42.8 126.454 42.8C137.014 42.8 145.574 37.2 146.534 27.76H149.734L146.534 34.96C144.134 45.52 137.894 48.48 127.654 47.6L108.694 46V57.2L127.654 58.8C147.814 60.48 155.574 46.96 155.574 29.36ZM142.774 21.36C142.774 28 138.854 31.6 129.494 31.6C120.854 31.6 116.934 28.72 116.934 22.16C116.934 14.64 121.014 12 129.814 12C138.774 12 142.774 16.48 142.774 21.36Z" fill="#151515"/>
</svg>
