<svg width="99" height="61" viewBox="0 0 99 61" fill="none" xmlns="http://www.w3.org/2000/svg">
<path d="M48.4 37.28H42.24V24.8H29.44V37.28H11.2L3.2 39.68V36.48C23.2 32.32 34.56 20.24 35.44 1.6H22.64C21.68 14.96 13.44 23.12 5.96046e-08 25.2V48.48H29.44V58H42.24V48.48H48.4V37.28ZM98.2619 29.36C98.2619 9.84 88.0219 0.799997 72.5019 0.799997C56.5019 0.799997 46.8219 9.6 46.8219 22.16C46.8219 35.04 55.1419 42.8 69.1419 42.8C79.7019 42.8 88.2619 37.2 89.2219 27.76H92.4219L89.2219 34.96C86.8219 45.52 80.5819 48.48 70.3419 47.6L51.3819 46V57.2L70.3419 58.8C90.5019 60.48 98.2619 46.96 98.2619 29.36ZM85.4619 21.36C85.4619 28 81.5419 31.6 72.1819 31.6C63.5419 31.6 59.6219 28.72 59.6219 22.16C59.6219 14.64 63.7019 12 72.5019 12C81.4619 12 85.4619 16.48 85.4619 21.36Z" fill="#151515"/>
</svg>
