<svg width="105" height="61" viewBox="0 0 105 61" fill="none" xmlns="http://www.w3.org/2000/svg">
<path d="M51.84 29.36C51.84 9.84 41.6 0.799997 26.08 0.799997C10.08 0.799997 0.4 9.6 0.4 22.16C0.4 35.04 8.72 42.8 22.72 42.8C33.28 42.8 41.84 37.2 42.8 27.76H46L42.8 34.96C40.4 45.52 34.16 48.48 23.92 47.6L4.96 46V57.2L23.92 58.8C44.08 60.48 51.84 46.96 51.84 29.36ZM39.04 21.36C39.04 28 35.12 31.6 25.76 31.6C17.12 31.6 13.2 28.72 13.2 22.16C13.2 14.64 17.28 12 26.08 12C35.04 12 39.04 16.48 39.04 21.36ZM104.871 29.36C104.871 9.84 94.6313 0.799997 79.1113 0.799997C63.1113 0.799997 53.4313 9.6 53.4313 22.16C53.4313 35.04 61.7513 42.8 75.7513 42.8C86.3113 42.8 94.8713 37.2 95.8313 27.76H99.0313L95.8313 34.96C93.4313 45.52 87.1913 48.48 76.9513 47.6L57.9913 46V57.2L76.9513 58.8C97.1113 60.48 104.871 46.96 104.871 29.36ZM92.0713 21.36C92.0713 28 88.1513 31.6 78.7913 31.6C70.1513 31.6 66.2313 28.72 66.2313 22.16C66.2313 14.64 70.3113 12 79.1113 12C88.0713 12 92.0713 16.48 92.0713 21.36Z" fill="white"/>
</svg>
